<svg width="116" height="41" viewBox="0 0 116 41" fill="none" xmlns="http://www.w3.org/2000/svg">
<path d="M65.24 24.096H56.888C56.952 25.392 57.272 26.352 57.848 26.976C58.44 27.584 59.312 27.888 60.464 27.888C61.792 27.888 63.024 27.456 64.16 26.592L65.024 28.656C64.448 29.12 63.736 29.496 62.888 29.784C62.056 30.056 61.208 30.192 60.344 30.192C58.36 30.192 56.8 29.632 55.664 28.512C54.528 27.392 53.96 25.856 53.96 23.904C53.96 22.672 54.208 21.576 54.704 20.616C55.2 19.656 55.896 18.912 56.792 18.384C57.688 17.84 58.704 17.568 59.84 17.568C61.504 17.568 62.816 18.112 63.776 19.2C64.752 20.272 65.24 21.752 65.24 23.64V24.096ZM59.912 19.728C59.112 19.728 58.456 19.968 57.944 20.448C57.448 20.912 57.128 21.592 56.984 22.488H62.624C62.528 21.576 62.248 20.888 61.784 20.424C61.336 19.96 60.712 19.728 59.912 19.728ZM78.5084 21.168C79.5004 21.456 80.2604 21.96 80.7884 22.68C81.3324 23.4 81.6044 24.288 81.6044 25.344C81.6044 26.8 81.0844 27.944 80.0444 28.776C79.0204 29.592 77.5884 30 75.7484 30H67.9964V12.912H75.5084C77.2684 12.912 78.6524 13.312 79.6604 14.112C80.6684 14.896 81.1724 15.984 81.1724 17.376C81.1724 18.272 80.9324 19.056 80.4524 19.728C79.9884 20.384 79.3404 20.864 78.5084 21.168ZM71.0204 20.112H75.0044C77.1484 20.112 78.2204 19.312 78.2204 17.712C78.2204 16.912 77.9564 16.312 77.4284 15.912C76.9004 15.512 76.0924 15.312 75.0044 15.312H71.0204V20.112ZM75.4124 27.6C76.5324 27.6 77.3484 27.4 77.8604 27C78.3884 26.6 78.6524 25.968 78.6524 25.104C78.6524 24.224 78.3884 23.576 77.8604 23.16C77.3484 22.744 76.5324 22.536 75.4124 22.536H71.0204V27.6H75.4124ZM84.3508 17.88H87.3268V30H84.3508V17.88ZM87.4948 12.384V15.336H84.1588V12.384H87.4948ZM98.8886 30L93.5846 24.408V30H90.6086V12.336H93.5846V23.232L98.5766 17.904H102.201L96.7526 23.688L102.633 30H98.8886ZM114.271 24.096H105.919C105.983 25.392 106.303 26.352 106.879 26.976C107.471 27.584 108.343 27.888 109.495 27.888C110.823 27.888 112.055 27.456 113.191 26.592L114.055 28.656C113.479 29.12 112.767 29.496 111.919 29.784C111.087 30.056 110.239 30.192 109.375 30.192C107.391 30.192 105.831 29.632 104.695 28.512C103.559 27.392 102.991 25.856 102.991 23.904C102.991 22.672 103.239 21.576 103.735 20.616C104.231 19.656 104.927 18.912 105.823 18.384C106.719 17.84 107.735 17.568 108.871 17.568C110.535 17.568 111.847 18.112 112.807 19.2C113.783 20.272 114.271 21.752 114.271 23.64V24.096ZM108.943 19.728C108.143 19.728 107.487 19.968 106.975 20.448C106.479 20.912 106.159 21.592 106.015 22.488H111.655C111.559 21.576 111.279 20.888 110.815 20.424C110.367 19.96 109.743 19.728 108.943 19.728Z" fill="white"/>
<circle cx="20.5" cy="20.5" r="20.5" fill="white"/>
<path d="M25.39 21.432C26.4647 21.744 27.288 22.29 27.86 23.07C28.4493 23.85 28.744 24.812 28.744 25.956C28.744 27.5333 28.1807 28.7727 27.054 29.674C25.9447 30.558 24.3933 31 22.4 31H14.002V12.488H22.14C24.0467 12.488 25.546 12.9213 26.638 13.788C27.73 14.6373 28.276 15.816 28.276 17.324C28.276 18.2947 28.016 19.144 27.496 19.872C26.9933 20.5827 26.2913 21.1027 25.39 21.432ZM17.278 20.288H21.594C23.9167 20.288 25.078 19.4213 25.078 17.688C25.078 16.8213 24.792 16.1713 24.22 15.738C23.648 15.3047 22.7727 15.088 21.594 15.088H17.278V20.288ZM22.036 28.4C23.2493 28.4 24.1333 28.1833 24.688 27.75C25.26 27.3167 25.546 26.632 25.546 25.696C25.546 24.7427 25.26 24.0407 24.688 23.59C24.1333 23.1393 23.2493 22.914 22.036 22.914H17.278V28.4H22.036Z" fill="#FFC44B"/>
</svg>
